<svg width="213" height="188" viewBox="0 0 213 188" fill="none" xmlns="http://www.w3.org/2000/svg">
<path d="M70.9989 153.513C84.9998 158.5 86.7833 146.069 123.155 136.945C152.84 129.498 163.008 138.993 181.464 125.877C209.748 105.774 174.374 89.8098 174.66 66.518C174.843 51.5919 179.805 27.2894 154.432 19.4804C129.059 11.6715 127.293 35.0607 92.5304 40.4426C43.8029 47.9865 61.8411 55.8842 43.3525 84.6604C30.8158 104.173 36.6216 119.475 45.1319 127.524C61.9582 143.438 52.803 147.033 70.9989 153.513Z" fill="#ECEDEB"/>
<path d="M2.22038 21.962C3.22931 21.962 4.04721 21.1441 4.04721 20.1352C4.04721 19.1262 3.22931 18.3083 2.22038 18.3083C1.21145 18.3083 0.393555 19.1262 0.393555 20.1352C0.393555 21.1441 1.21145 21.962 2.22038 21.962Z" fill="white"/>
<path d="M45.695 97.6922C46.7039 97.6922 47.5218 96.8743 47.5218 95.8654C47.5218 94.8565 46.7039 94.0386 45.695 94.0386C44.6861 94.0386 43.8682 94.8565 43.8682 95.8654C43.8682 96.8743 44.6861 97.6922 45.695 97.6922Z" fill="white"/>
<path d="M190.143 88.5765C191.152 88.5765 191.97 87.7586 191.97 86.7497C191.97 85.7407 191.152 84.9229 190.143 84.9229C189.134 84.9229 188.316 85.7407 188.316 86.7497C188.316 87.7586 189.134 88.5765 190.143 88.5765Z" fill="#00A0FF"/>
<path d="M38.683 136.258C39.692 136.258 40.5099 135.44 40.5099 134.432C40.5099 133.423 39.692 132.605 38.683 132.605C37.6741 132.605 36.8562 133.423 36.8562 134.432C36.8562 135.44 37.6741 136.258 38.683 136.258Z" fill="#00A0FF"/>
<path d="M82.1579 47.9066C83.1668 47.9066 83.9847 47.0887 83.9847 46.0798C83.9847 45.0708 83.1668 44.2529 82.1579 44.2529C81.149 44.2529 80.3311 45.0708 80.3311 46.0798C80.3311 47.0887 81.149 47.9066 82.1579 47.9066Z" fill="white"/>
<path d="M114.413 147.478C115.422 147.478 116.24 146.66 116.24 145.651C116.24 144.642 115.422 143.824 114.413 143.824C113.404 143.824 112.587 144.642 112.587 145.651C112.587 146.66 113.404 147.478 114.413 147.478Z" fill="#FF6584"/>
<path d="M84.2613 139.764C85.2702 139.764 86.0881 138.947 86.0881 137.938C86.0881 136.929 85.2702 136.111 84.2613 136.111C83.2523 136.111 82.4344 136.929 82.4344 137.938C82.4344 138.947 83.2523 139.764 84.2613 139.764Z" fill="white"/>
<path d="M89.1698 25.4681C90.1788 25.4681 90.9967 24.6502 90.9967 23.6413C90.9967 22.6323 90.1788 21.8145 89.1698 21.8145C88.1609 21.8145 87.343 22.6323 87.343 23.6413C87.343 24.6502 88.1609 25.4681 89.1698 25.4681Z" fill="#FFB800"/>
<path d="M38.683 70.3451C39.692 70.3451 40.5099 69.5272 40.5099 68.5182C40.5099 67.5093 39.692 66.6914 38.683 66.6914C37.6741 66.6914 36.8562 67.5093 36.8562 68.5182C36.8562 69.5272 37.6741 70.3451 38.683 70.3451Z" fill="#FFB800"/>
<path d="M66.7312 103.302C67.7402 103.302 68.5581 102.484 68.5581 101.475C68.5581 100.466 67.7402 99.6482 66.7312 99.6482C65.7223 99.6482 64.9044 100.466 64.9044 101.475C64.9044 102.484 65.7223 103.302 66.7312 103.302Z" fill="#FF6584"/>
<path d="M124.708 39.6949C124.708 40.7742 123.833 41.6492 122.754 41.6492C121.675 41.6492 120.8 40.7742 120.8 39.6949C120.8 38.6157 121.675 37.7407 122.754 37.7407C123.833 37.7407 124.708 38.6157 124.708 39.6949Z" stroke="#FF6584"/>
<path d="M168.884 18.659C168.884 19.7383 168.009 20.6133 166.93 20.6133C165.851 20.6133 164.976 19.7383 164.976 18.659C164.976 17.5798 165.851 16.7048 166.93 16.7048C168.009 16.7048 168.884 17.5798 168.884 18.659Z" stroke="#FF6584"/>
<path d="M102.269 139.617C102.269 140.115 101.865 140.519 101.367 140.519C100.869 140.519 100.465 140.115 100.465 139.617C100.465 139.118 100.869 138.714 101.367 138.714C101.865 138.714 102.269 139.118 102.269 139.617Z" stroke="white"/>
<path d="M189.831 44.7344C188.382 45.2334 188.035 47.21 188.534 48.6596C189.032 50.1092 190.088 51.3116 190.619 52.7495C190.862 53.4747 191.036 54.221 191.139 54.9786C191.443 56.7825 191.747 58.6181 191.513 60.4322C191.291 62.1532 190.594 63.7757 189.816 65.3268C188.31 68.33 182.571 75.6826 180.446 78.2849" stroke="#2F2E41" stroke-opacity="0.6"/>
<path d="M200.938 27.7877C200.938 34.1576 195.775 44.3241 189.405 44.3241C183.035 44.3241 177.871 34.1576 177.871 27.7877C177.871 24.7287 179.086 21.7951 181.249 19.6321C183.412 17.4691 186.346 16.2539 189.405 16.2539C192.464 16.2539 195.397 17.4691 197.56 19.6321C199.723 21.7951 200.938 24.7287 200.938 27.7877Z" fill="#FFB800"/>
<path d="M190.516 45.4358C189.775 44.9602 189.034 44.9602 188.293 45.4358V43.2124H190.516V45.4358Z" fill="#FFB800"/>
<path opacity="0.6" d="M188.188 44.5094C188.533 44.6843 188.915 44.7747 189.302 44.7731C189.69 44.7715 190.071 44.678 190.415 44.5002" stroke="#2F2E41"/>
<path opacity="0.4" d="M194.199 25.8422C195.542 25.8422 196.63 24.5357 196.63 22.924C196.63 21.3124 195.542 20.0059 194.199 20.0059C192.855 20.0059 191.767 21.3124 191.767 22.924C191.767 24.5357 192.855 25.8422 194.199 25.8422Z" fill="white"/>
<path d="M37.0012 46.2677C37.0012 50.4786 40.4148 57.1992 44.6257 57.1992C48.8365 57.1992 52.2501 50.4786 52.2501 46.2677C52.2501 44.2456 51.4468 42.3063 50.0169 40.8765C48.5871 39.4466 46.6478 38.6433 44.6257 38.6433C42.6035 38.6433 40.6642 39.4466 39.2344 40.8765C37.8045 42.3063 37.0012 44.2456 37.0012 46.2677Z" fill="#00A0FF"/>
<path d="M44.3432 57.4702C45.3014 57.8001 45.5308 59.1067 45.2012 60.065C44.8716 61.0232 44.1736 61.8181 43.8224 62.7686C43.6622 63.248 43.5471 63.7414 43.4788 64.2422C43.2782 65.4346 43.077 66.6481 43.2316 67.8473C43.3782 68.985 43.8391 70.0576 44.3533 71.0829C45.3492 73.0682 46.5606 74.9378 47.9656 76.658" stroke="#2F2E41" stroke-opacity="0.6"/>
<path d="M43.8906 57.9341C44.3805 57.6197 44.8705 57.6197 45.3604 57.9341V56.4644H43.8906V57.9341Z" fill="#00A0FF"/>
<path d="M45.3567 57.1679C45.1283 57.2835 44.8757 57.3433 44.6197 57.3422C44.3638 57.3412 44.1117 57.2794 43.8843 57.1619" stroke="#2F2E41" stroke-opacity="0.6"/>
<path opacity="0.4" d="M48.6466 45.7808C49.5345 45.7808 50.2542 44.9171 50.2542 43.8517C50.2542 42.7863 49.5345 41.9226 48.6466 41.9226C47.7588 41.9226 47.0391 42.7863 47.0391 43.8517C47.0391 44.9171 47.7588 45.7808 48.6466 45.7808Z" fill="white"/>
<path d="M123.041 10.3041C123.041 15.5146 118.817 23.8305 113.606 23.8305C108.396 23.8305 104.172 15.5146 104.172 10.3041C104.172 7.80196 105.166 5.4023 106.935 3.63301C108.704 1.86373 111.104 0.869751 113.606 0.869751C116.108 0.869751 118.508 1.86373 120.277 3.63301C122.047 5.4023 123.041 7.80196 123.041 10.3041Z" fill="#FF6584"/>
<path d="M113.956 24.166C112.77 24.5742 112.486 26.191 112.894 27.3767C113.302 28.5625 114.166 29.546 114.6 30.7222C114.799 31.3154 114.941 31.9258 115.026 32.5456C115.274 34.0211 115.523 35.5225 115.331 37.0065C115.15 38.4142 114.58 39.7414 113.943 41.0102C112.711 43.4667 111.212 45.7802 109.474 47.9087" stroke="#2F2E41" stroke-opacity="0.6"/>
<path d="M114.516 24.7398C113.91 24.3508 113.304 24.3508 112.697 24.7398V22.9211H114.516V24.7398Z" fill="#00A0FF"/>
<path d="M112.702 23.7919C112.985 23.935 113.297 24.0089 113.614 24.0076C113.931 24.0063 114.243 23.9298 114.524 23.7844" stroke="#2F2E41" stroke-opacity="0.6"/>
<path opacity="0.4" d="M117.528 8.71285C116.429 8.71285 115.539 7.64416 115.539 6.32585C115.539 5.00754 116.429 3.93884 117.528 3.93884C118.627 3.93884 119.517 5.00754 119.517 6.32585C119.517 7.64416 118.627 8.71285 117.528 8.71285Z" fill="white"/>
<path d="M53.8608 56.8578L178.944 33.9408C179.199 33.8918 179.46 33.8949 179.714 33.9499C179.944 34.0002 180.16 34.101 180.346 34.245C180.528 34.3869 180.674 34.5692 180.773 34.7775C180.879 35.0025 180.933 35.2483 180.93 35.4968V147.557C180.933 147.806 180.879 148.052 180.774 148.277C180.675 148.485 180.528 148.667 180.347 148.809C180.161 148.953 179.945 149.054 179.715 149.105C179.462 149.16 179.2 149.163 178.945 149.115L53.8608 126.197C53.7572 126.176 53.6611 126.127 53.5827 126.056C53.4912 125.974 53.4145 125.877 53.3563 125.769C53.2886 125.646 53.2374 125.514 53.2039 125.378C53.1669 125.229 53.1481 125.077 53.148 124.924V58.1354C53.1479 57.9819 53.1666 57.8289 53.2037 57.6799C53.2371 57.5432 53.2884 57.4115 53.356 57.2882C53.4143 57.1801 53.491 57.083 53.5825 57.0012C53.6609 56.9301 53.7569 56.8813 53.8606 56.8599L53.8608 56.8578Z" fill="#E4E4E4"/>
<path d="M51.9476 56.8578L177.031 33.9408C177.285 33.8918 177.547 33.8949 177.801 33.9499C178.031 34.0002 178.246 34.101 178.432 34.245C178.614 34.3869 178.761 34.5692 178.86 34.7775C178.966 35.0025 179.019 35.2483 179.017 35.4968V147.557C179.019 147.806 178.966 148.052 178.861 148.277C178.761 148.485 178.615 148.667 178.433 148.809C178.247 148.953 178.032 149.054 177.802 149.105C177.549 149.16 177.287 149.163 177.032 149.115L51.9476 126.197C51.8439 126.176 51.7479 126.127 51.6695 126.056C51.5779 125.974 51.5013 125.877 51.443 125.769C51.3754 125.646 51.3242 125.514 51.2907 125.378C51.2536 125.229 51.2349 125.077 51.2348 124.924V58.1354C51.2347 57.9819 51.2534 57.8289 51.2905 57.6799C51.3239 57.5432 51.3752 57.4115 51.4428 57.2882C51.5011 57.1801 51.5777 57.083 51.6693 57.0012C51.7477 56.9301 51.8437 56.8813 51.9474 56.8599L51.9476 56.8578Z" fill="white"/>
<path d="M169.547 44.7769C168.184 44.7769 167.079 43.6718 167.079 42.3086C167.079 40.9454 168.184 39.8403 169.547 39.8403C170.911 39.8403 172.016 40.9454 172.016 42.3086C172.016 43.6718 170.911 44.7769 169.547 44.7769Z" fill="#FF0000"/>
<path d="M160.387 46.2986C159.138 46.2986 158.126 45.2866 158.126 44.0382C158.126 42.7898 159.138 41.7778 160.387 41.7778C161.635 41.7778 162.647 42.7898 162.647 44.0382C162.647 45.2866 161.635 46.2986 160.387 46.2986Z" fill="#ACC4DD"/>
<path d="M151.34 47.5903C150.27 47.5903 149.403 46.7228 149.403 45.6528C149.403 44.5828 150.27 43.7153 151.34 43.7153C152.41 43.7153 153.278 44.5828 153.278 45.6528C153.278 46.7228 152.41 47.5903 151.34 47.5903Z" fill="#46B275"/>
<path d="M51.9476 56.8578L177.031 33.9408C177.285 33.8918 177.547 33.8949 177.801 33.9499C178.031 34.0002 178.246 34.101 178.432 34.245C178.614 34.3869 178.761 34.5692 178.86 34.7775C178.966 35.0025 179.019 35.2483 179.017 35.4968V147.557C179.019 147.806 178.966 148.052 178.861 148.277C178.761 148.485 178.615 148.667 178.433 148.809C178.247 148.953 178.032 149.054 177.802 149.105C177.549 149.16 177.287 149.163 177.032 149.115L51.9476 126.197C51.8439 126.176 51.7479 126.127 51.6695 126.056C51.5779 125.974 51.5013 125.877 51.443 125.769C51.3754 125.646 51.3242 125.514 51.2907 125.378C51.2536 125.229 51.2349 125.077 51.2348 124.924V58.1354C51.2347 57.9819 51.2534 57.8289 51.2905 57.6799C51.3239 57.5432 51.3752 57.4115 51.4428 57.2882C51.5011 57.1801 51.5777 57.083 51.6693 57.0012C51.7477 56.9301 51.8437 56.8813 51.9474 56.8599L51.9476 56.8578ZM51.4717 124.964C51.4717 125.066 51.4842 125.169 51.509 125.268C51.5313 125.359 51.5655 125.447 51.6107 125.529C51.6496 125.602 51.7007 125.666 51.7618 125.721C51.8141 125.768 51.8781 125.8 51.9471 125.814L177.03 148.477C177.199 148.51 177.374 148.507 177.542 148.47C177.695 148.436 177.839 148.369 177.963 148.273C178.084 148.178 178.181 148.057 178.247 147.918C178.317 147.768 178.352 147.605 178.351 147.44V35.6159C178.352 35.4507 178.317 35.2873 178.247 35.1376C178.181 34.9988 178.084 34.8771 177.963 34.7823C177.839 34.6862 177.696 34.6187 177.543 34.5848C177.374 34.5477 177.2 34.5452 177.03 34.5774L51.9471 57.2408C51.8781 57.2549 51.8141 57.2873 51.7618 57.3346C51.7007 57.3891 51.6496 57.4538 51.6107 57.5259C51.5655 57.6081 51.5312 57.6959 51.5088 57.787C51.484 57.8865 51.4715 57.9886 51.4715 58.0912V124.964L51.4717 124.964Z" fill="#CACACA"/>
<path d="M93.0764 59.8804L139.491 53.5038C139.705 53.4732 139.924 53.4918 140.131 53.5584C140.327 53.6231 140.506 53.7313 140.655 53.875C140.809 54.0235 140.93 54.2028 141.01 54.401C141.098 54.6198 141.142 54.8535 141.141 55.0892V105.052C141.142 105.291 141.097 105.528 141.01 105.751C140.929 105.957 140.808 106.147 140.655 106.307C140.507 106.462 140.329 106.584 140.131 106.666C139.928 106.749 139.71 106.785 139.491 106.773L93.0764 104.217C92.9196 104.207 92.768 104.157 92.6352 104.073C92.4946 103.985 92.3727 103.869 92.2765 103.734C92.1703 103.585 92.0887 103.421 92.035 103.247C91.976 103.057 91.946 102.86 91.9462 102.662V61.527C91.9464 61.3263 91.9763 61.1267 92.035 60.9347C92.0895 60.7545 92.1709 60.5836 92.2765 60.4278C92.3729 60.284 92.4944 60.1589 92.6352 60.0583C92.7661 59.965 92.9173 59.904 93.0764 59.8804ZM139.491 106.259C139.647 106.267 139.803 106.241 139.947 106.182C140.089 106.123 140.216 106.035 140.321 105.925C140.431 105.81 140.517 105.674 140.574 105.526C140.636 105.368 140.668 105.199 140.668 105.028V55.1512C140.669 54.9832 140.637 54.8166 140.574 54.6607C140.517 54.519 140.431 54.3907 140.321 54.2843C140.215 54.1819 140.087 54.1047 139.947 54.0584C139.8 54.0106 139.644 53.9969 139.491 54.0184L93.0764 60.3087C92.9626 60.3255 92.8545 60.3691 92.761 60.4359C92.6602 60.5074 92.5732 60.5965 92.5041 60.6989C92.4285 60.8103 92.3703 60.9324 92.3313 61.0612C92.2892 61.1984 92.2678 61.3412 92.2676 61.4847V102.678C92.2675 102.82 92.289 102.961 92.3313 103.097C92.3698 103.221 92.4281 103.339 92.5041 103.445C92.5731 103.542 92.6603 103.624 92.761 103.687C92.856 103.747 92.9644 103.782 93.0764 103.789L139.491 106.259Z" fill="#E6E6E6"/>
<path d="M166.973 120.722C167.097 120.736 167.214 120.781 167.314 120.855C167.425 120.936 167.519 121.037 167.591 121.154C167.674 121.284 167.736 121.425 167.776 121.574C167.82 121.736 167.842 121.904 167.84 122.072C167.839 122.233 167.815 122.393 167.768 122.547C167.727 122.683 167.664 122.81 167.581 122.925C167.509 123.026 167.416 123.109 167.307 123.17C167.205 123.226 167.089 123.252 166.972 123.245L85.7162 116.517C85.6515 116.511 85.5908 116.483 85.5445 116.438C85.4854 116.381 85.4375 116.314 85.4034 116.24C85.3601 116.148 85.328 116.052 85.3078 115.953C85.2836 115.838 85.2711 115.721 85.2705 115.604C85.2691 115.488 85.2797 115.373 85.302 115.259C85.3205 115.162 85.3514 115.068 85.3938 114.979C85.4261 114.908 85.4729 114.845 85.5311 114.793C85.5781 114.751 85.639 114.729 85.7018 114.73H85.7162L166.973 120.722Z" fill="#E6E6E6"/>
<path d="M166.973 128.379C167.097 128.396 167.215 128.445 167.314 128.521C167.425 128.605 167.519 128.708 167.591 128.826C167.673 128.958 167.736 129.102 167.776 129.252C167.82 129.415 167.842 129.584 167.84 129.753C167.839 129.913 167.815 130.073 167.768 130.226C167.728 130.36 167.665 130.486 167.581 130.599C167.509 130.698 167.416 130.779 167.308 130.836C167.205 130.889 167.088 130.912 166.973 130.902L85.7162 121.938C85.6511 121.931 85.5905 121.901 85.5445 121.855C85.4855 121.797 85.4376 121.728 85.4034 121.653C85.3601 121.56 85.328 121.462 85.3077 121.362C85.2836 121.247 85.2711 121.13 85.2704 121.012C85.269 120.896 85.2796 120.781 85.302 120.667C85.3204 120.571 85.3513 120.478 85.3938 120.39C85.4263 120.321 85.4734 120.259 85.5318 120.209C85.5792 120.168 85.6402 120.147 85.7025 120.15H85.7169L166.973 128.379Z" fill="#E6E6E6"/>
<path d="M166.973 135.912C167.098 135.933 167.215 135.985 167.314 136.063C167.425 136.15 167.519 136.256 167.591 136.376C167.673 136.51 167.735 136.655 167.776 136.807C167.82 136.97 167.842 137.14 167.84 137.309C167.839 137.469 167.815 137.628 167.768 137.78C167.728 137.913 167.665 138.037 167.581 138.148C167.509 138.245 167.416 138.323 167.308 138.378C167.204 138.428 167.088 138.448 166.973 138.435L85.7162 127.272C85.6507 127.262 85.5903 127.231 85.5445 127.184C85.4855 127.124 85.4378 127.054 85.4034 126.978C85.3602 126.884 85.3281 126.785 85.3078 126.684C85.2837 126.569 85.2712 126.451 85.2705 126.333C85.269 126.218 85.2796 126.103 85.302 125.99C85.3204 125.894 85.3512 125.802 85.3938 125.715C85.4262 125.646 85.4733 125.586 85.5318 125.537C85.5796 125.498 85.6408 125.478 85.7026 125.483H85.7169L166.973 135.912Z" fill="#E6E6E6"/>
<path d="M80.7163 79.9525C80.7378 80.1194 80.7724 80.2844 80.8198 80.4459L71.1505 92.0234L67.5392 91.4011L65.8878 96.7285L72.1738 98.4514C72.6816 98.5905 73.2209 98.5612 73.7107 98.3679C74.2004 98.1745 74.6142 97.8274 74.89 97.3788L83.8766 82.7589C84.525 82.7607 85.1585 82.5651 85.693 82.198C86.2275 81.831 86.6375 81.31 86.8686 80.7042C87.0997 80.0984 87.141 79.4366 86.9868 78.8069C86.8326 78.1771 86.4904 77.6092 86.0056 77.1787C85.5208 76.7482 84.9164 76.4755 84.2728 76.3969C83.6292 76.3182 82.9769 76.4374 82.4028 76.7385C81.8286 77.0396 81.3597 77.5084 81.0584 78.0825C80.7571 78.6567 80.6378 79.3089 80.7163 79.9525Z" fill="#FFB6B6"/>
<path d="M70.7224 91.3779C70.6191 91.2105 70.4808 91.0674 70.3172 90.9583C70.1535 90.8492 69.9682 90.7767 69.774 90.7458L62.9902 89.664C62.0305 89.3612 60.9899 89.4513 60.0965 89.9145C59.2031 90.3778 58.5299 91.1764 58.2245 92.1353C57.919 93.0941 58.0063 94.135 58.4671 95.0296C58.9279 95.9242 59.7246 96.5996 60.6827 96.9077L66.8808 99.9211C67.0577 100.007 67.251 100.054 67.4477 100.058C67.6443 100.063 67.8396 100.025 68.0202 99.9473C68.2009 99.8696 68.3627 99.7538 68.4946 99.6079C68.6265 99.462 68.7254 99.2893 68.7845 99.1018L70.8634 92.509C70.9226 92.3214 70.9407 92.1232 70.9164 91.928C70.892 91.7328 70.8259 91.5452 70.7224 91.3779Z" fill="#FF6584"/>
<path d="M70.3444 185.158H73.2761L74.6707 173.85L70.3439 173.851L70.3444 185.158Z" fill="#FFB6B6"/>
<path d="M69.5966 188L79.0494 188V187.88C79.0494 186.904 78.6617 185.969 77.9717 185.279C77.2817 184.589 76.3459 184.201 75.3701 184.201H75.3699L69.5964 184.201L69.5966 188Z" fill="#2F2E41"/>
<path d="M39.736 185.158H42.6677L44.0623 173.85L39.7355 173.851L39.736 185.158Z" fill="#FFB6B6"/>
<path d="M38.9882 188L48.441 188V187.88C48.441 186.904 48.0533 185.969 47.3633 185.279C46.6733 184.589 45.7375 184.201 44.7617 184.201H44.7615L38.988 184.201L38.9882 188Z" fill="#2F2E41"/>
<path d="M69.1994 116.278L56.4956 112.607C51.8678 115.89 48.6725 122.469 49.7074 130.982C51.3751 144.7 41.7208 162.338 37.5572 180.21L44.7568 180.436L60.5223 142.707L69.7652 181.222L76.1967 181.424L71.8958 128.393L69.1994 116.278Z" fill="#2F2E41"/>
<path d="M62.8417 84.854C59.2122 84.854 56.27 81.9118 56.27 78.2824C56.27 74.6529 59.2122 71.7107 62.8417 71.7107C66.4711 71.7107 69.4133 74.6529 69.4133 78.2824C69.4133 81.9118 66.4711 84.854 62.8417 84.854Z" fill="#FFB6B6"/>
<path d="M64.6818 82.4562C64.1651 83.4895 64.2512 86.977 64.3589 88.5915L57.9006 88.2686L61.7756 81.4875C62.9596 81.3798 65.1984 81.4229 64.6818 82.4562Z" fill="#FFB6B6"/>
<path d="M66.2741 71.8561C63.9811 70.299 61.9618 70.0618 60.3031 70.5034C60.0881 70.175 59.7865 69.9107 59.4308 69.7387C58.1372 66.5203 54.2002 64.5874 50.8216 65.527C47.4211 66.4727 45.0749 70.1917 45.7147 73.6221C46.1113 75.7485 47.4666 77.5897 48.0118 79.6837C49.067 83.7374 46.4927 88.3808 42.4656 89.6875C46.2786 90.4434 50.4757 88.1438 51.8437 84.5493C52.5081 82.8033 52.5481 80.8971 52.6326 79.0339C52.717 77.1706 52.8691 75.2514 53.7243 73.5884C54.2975 72.4477 55.2497 71.5357 56.4217 71.0045C56.3168 71.325 56.2905 71.6656 56.3451 71.9981C56.3998 72.3306 56.5337 72.6455 56.7359 72.9168C55.8417 74.0228 55.3549 75.2189 55.3549 75.9352C53.4973 79.2873 56.1537 82.1667 59.5489 84.0007C60.9031 84.7361 62.4667 85.0052 63.993 84.7657L64.1351 84.167L64.3275 84.7063L64.97 86.5142C65.7111 86.8682 66.4458 87.2562 67.1741 87.6783C66.8974 86.3954 66.6736 85.1149 66.5195 83.8629C66.3063 82.1588 67.0496 79.622 67.5859 78.0792C67.9183 77.1284 68.089 76.1298 68.0908 75.1239V75.0799L68.6129 76.7357L70.5138 75.9351C70.1602 73.9324 70.5138 71.6589 66.2741 71.8561Z" fill="#2F2E41"/>
<path d="M70.2292 105.567C71.6818 103.017 72.3995 99.9208 71.1352 97.2726C70.8169 96.6058 69.9489 95.9755 69.4945 95.3928L64.4169 87.8222L58.6836 86.8999C53.7219 91.0613 57.9605 105.278 53.8953 114.604L69.4709 116.679C68.2573 112.045 68.0219 109.442 70.2292 105.567Z" fill="#FF6584"/>
<path d="M86.9333 65.3135L133.348 58.9369C133.562 58.9063 133.781 58.9249 133.987 58.9915C134.184 59.0562 134.363 59.1644 134.512 59.3081C134.666 59.4567 134.787 59.6359 134.867 59.8341C134.955 60.0529 134.999 60.2866 134.998 60.5224V110.486C134.998 110.724 134.954 110.961 134.867 111.184C134.786 111.391 134.665 111.58 134.512 111.74C134.364 111.895 134.186 112.017 133.988 112.099C133.785 112.182 133.567 112.219 133.348 112.206L86.9333 109.65C86.7766 109.64 86.6249 109.59 86.4921 109.507C86.3515 109.418 86.2296 109.302 86.1334 109.167C86.0272 109.018 85.9457 108.854 85.8919 108.68C85.8329 108.49 85.803 108.293 85.8032 108.095V66.9601C85.8033 66.7594 85.8332 66.5598 85.8919 66.3678C85.9464 66.1876 86.0278 66.0167 86.1334 65.8609C86.2298 65.7171 86.3513 65.592 86.4921 65.4914C86.623 65.3981 86.7742 65.3371 86.9333 65.3135Z" fill="#FF6584"/>
<path opacity="0.2" d="M86.9332 65.3135L133.348 58.9369C133.562 58.9063 133.781 58.9249 133.987 58.9915C134.184 59.0562 134.363 59.1644 134.512 59.3081C134.666 59.4567 134.787 59.6359 134.867 59.8341C134.955 60.0529 134.999 60.2866 134.998 60.5224V110.486C134.998 110.724 134.954 110.961 134.867 111.184C134.786 111.391 134.665 111.58 134.512 111.74C134.364 111.895 134.185 112.017 133.988 112.099C133.785 112.182 133.566 112.219 133.348 112.206L86.9332 109.65C86.7764 109.64 86.6248 109.59 86.492 109.507C86.3514 109.418 86.2295 109.302 86.1333 109.167C86.0271 109.018 85.9456 108.854 85.8918 108.68C85.8328 108.49 85.8029 108.293 85.8031 108.095V66.9601C85.8032 66.7594 85.8331 66.5598 85.8918 66.3678C85.9463 66.1876 86.0277 66.0167 86.1333 65.8609C86.2297 65.7171 86.3512 65.592 86.492 65.4914C86.6229 65.3981 86.7741 65.3371 86.9332 65.3135Z" fill="black"/>
<path d="M85.0202 65.3135L131.435 58.9369C131.649 58.9063 131.868 58.9249 132.074 58.9915C132.271 59.0562 132.45 59.1644 132.599 59.3081C132.753 59.4567 132.874 59.6359 132.954 59.8341C133.042 60.0529 133.086 60.2866 133.085 60.5224V110.486C133.085 110.724 133.041 110.961 132.954 111.184C132.873 111.391 132.752 111.58 132.599 111.74C132.451 111.895 132.273 112.017 132.075 112.099C131.872 112.182 131.653 112.219 131.435 112.206L85.0202 109.65C84.8635 109.64 84.7118 109.59 84.579 109.507C84.4384 109.418 84.3166 109.302 84.2203 109.167C84.1141 109.018 84.0326 108.854 83.9788 108.68C83.9198 108.49 83.8899 108.293 83.8901 108.095V66.9601C83.8903 66.7594 83.9202 66.5598 83.9788 66.3678C84.0333 66.1876 84.1147 66.0167 84.2203 65.8609C84.3167 65.7171 84.4382 65.592 84.579 65.4914C84.71 65.3981 84.8611 65.3371 85.0202 65.3135Z" fill="#FF6584"/>
<path d="M115.575 89.5786C115.641 90.3878 117.309 92.6348 117.309 92.6348C117.309 92.6348 118.592 90.1518 118.523 89.3372C118.466 88.9666 118.27 88.6315 117.976 88.3992C117.681 88.167 117.31 88.0549 116.936 88.0855C116.562 88.1161 116.214 88.2871 115.961 88.5641C115.708 88.8411 115.57 89.2036 115.574 89.5786H115.575Z" fill="#6C63FF"/>
<path d="M118.368 96.0604C117.57 95.885 115.571 93.9321 115.571 93.9321C115.571 93.9321 118.202 92.988 119.001 93.1687C119.362 93.274 119.669 93.5125 119.861 93.8358C120.053 94.1592 120.115 94.5434 120.034 94.9106C119.954 95.2779 119.737 95.601 119.427 95.8144C119.118 96.0278 118.739 96.1157 118.367 96.0604H118.368Z" fill="#6C63FF"/>
<path opacity="0.1" d="M115.575 89.5786C115.641 90.3878 117.309 92.6348 117.309 92.6348C117.309 92.6348 118.592 90.1518 118.523 89.3372C118.466 88.9666 118.27 88.6315 117.976 88.3992C117.681 88.167 117.31 88.0549 116.936 88.0855C116.562 88.1161 116.214 88.2871 115.961 88.5641C115.708 88.8411 115.57 89.2036 115.574 89.5786H115.575Z" fill="#6C63FF"/>
<path opacity="0.1" d="M118.368 96.0604C117.57 95.885 115.571 93.9321 115.571 93.9321C115.571 93.9321 118.202 92.988 119.001 93.1687C119.362 93.274 119.669 93.5125 119.861 93.8358C120.053 94.1592 120.115 94.5434 120.034 94.9106C119.954 95.2779 119.737 95.601 119.427 95.8144C119.118 96.0278 118.739 96.1157 118.367 96.0604H118.368Z" fill="#6C63FF"/>
<path opacity="0.1" d="M110.496 101.996C110.496 101.996 110.342 103.396 110.155 105.3C111.628 105.121 113.115 105.246 113.443 105.153C113.771 105.06 115.902 105.756 117.559 105.828L118.424 101.429L110.496 101.996Z" fill="black"/>
<path opacity="0.1" d="M99.481 101.363L100.162 104.831C101.081 104.831 101.934 104.897 102.218 105.152C102.882 105.751 106.006 106.665 107.824 105.98C107.606 103.705 107.41 101.924 107.41 101.924L99.481 101.363Z" fill="black"/>
<path d="M117.652 78.5621C117.652 78.5621 115.056 82.4207 117.652 87.5418C120.248 92.6628 122.492 103.322 122.492 103.322C122.492 103.322 120.107 103.111 119.475 104.724C118.844 106.337 113.934 104.589 113.441 104.724C112.949 104.859 109.863 104.514 108.11 105.426C106.357 106.337 102.919 105.355 102.216 104.724C101.513 104.093 97.3053 104.589 97.3053 104.589C97.3053 104.589 99.5536 88.1743 102.708 85.3676C102.708 85.3676 104.596 83.0519 102.217 79.1933C99.8382 75.3346 117.652 78.5621 117.652 78.5621Z" fill="white"/>
<path opacity="0.1" d="M99.8315 72.5995C99.8315 72.5995 99.7614 75.1958 99.9664 76.8088C100.068 77.583 100.039 79.4226 99.9826 81.1247C101.152 80.9642 102.545 81.0721 102.913 81.1557C103.23 81.184 103.549 81.1608 103.857 81.0869C105.009 80.8738 106.753 80.2979 107.266 79.6829C107.967 78.8413 110.213 80.244 110.703 80.5947C111.194 80.9453 114.141 81.0856 114.913 80.7295C115.437 80.4908 116.221 80.48 117.022 80.8051C117.431 80.9731 117.809 81.2083 118.14 81.501C118.715 82.0041 119.602 81.9919 120.332 81.8597C120.383 80.387 120.521 75.2727 120.105 71.4747C120.073 71.1798 120.041 70.9019 120.01 70.6412C117.057 70.3094 109.085 70.4227 109.085 70.4227C109.085 70.4227 102.196 70.5751 99.5658 71.2238C99.6002 71.6912 99.6894 72.153 99.8315 72.5995Z" fill="black"/>
<path opacity="0.1" d="M105.69 67.4435C103.867 67.4435 103.445 67.4435 102.813 67.3086L105.69 67.4435Z" fill="black"/>
<path opacity="0.05" d="M111.387 69.9924C111.387 69.9924 109.542 70.9595 109.457 71.9373C109.457 71.9373 108.771 70.1165 107.792 70.0315" fill="black"/>
<g opacity="0.05">
<path d="M102.708 85.3676C102.708 85.3676 104.596 83.0519 102.217 79.1932C101.583 78.1682 102.376 77.6435 103.882 77.425C103.621 77.7069 103.602 78.0792 103.902 78.562C106.288 82.4207 104.393 84.7364 104.393 84.7364C101.235 87.5431 98.9912 103.96 98.9912 103.96C98.9912 103.96 103.2 103.469 103.902 104.094C104.603 104.72 108.041 105.713 109.796 104.796C111.55 103.879 114.636 104.235 115.127 104.094C115.456 104 117.772 104.758 119.452 104.781C118.731 106.298 113.923 104.587 113.444 104.726C112.965 104.865 109.866 104.515 108.112 105.427C106.359 106.339 102.921 105.357 102.219 104.726C101.516 104.094 97.308 104.591 97.308 104.591C97.308 104.591 99.5536 88.1742 102.708 85.3676Z" fill="black"/>
<path d="M122.409 102.941C122.464 103.191 122.492 103.328 122.492 103.328C122.229 103.312 121.964 103.318 121.702 103.347C121.913 103.174 122.152 103.036 122.409 102.941Z" fill="black"/>
</g>
<path opacity="0.1" d="M109.092 70.9152C109.092 70.9152 118.985 70.7803 120.808 71.2658C122.631 71.7514 121.581 81.9961 121.581 81.9961C121.581 81.9961 119.265 82.978 118.143 81.9961C117.021 81.0143 115.687 80.874 114.915 81.2247C114.144 81.5753 111.197 81.4351 110.706 81.0898C110.215 80.7445 107.97 79.3365 107.268 80.1781C106.567 81.0197 103.55 81.7965 102.919 81.6509C102.288 81.5052 98.7795 81.3002 98.2886 82.4223C98.2886 82.4223 97.7276 73.092 98.6393 72.1088C99.551 71.1256 109.092 70.9152 109.092 70.9152Z" fill="black"/>
<path d="M109.092 70.5643C109.092 70.5643 118.985 70.4295 120.808 70.915C122.632 71.4005 121.58 81.6493 121.58 81.6493C121.58 81.6493 119.264 82.6312 118.142 81.6493C117.02 80.6675 115.686 80.5272 114.914 80.8779C114.143 81.2285 111.196 81.0883 110.705 80.743C110.214 80.3977 107.968 78.9897 107.267 79.8313C106.566 80.6729 103.549 81.4497 102.917 81.3041C102.286 81.1584 98.7783 80.9534 98.2874 82.0755C98.2874 82.0755 97.7263 72.7452 98.638 71.762C99.5498 70.7788 109.092 70.5643 109.092 70.5643Z" fill="white"/>
<path d="M85.2195 108.062C85.0932 108.174 84.9758 108.295 84.8685 108.424L69.8625 104.086L68.3572 100.745L63.018 102.357L65.1082 108.531C65.277 109.03 65.6031 109.46 66.0375 109.758C66.4718 110.056 66.991 110.204 67.5171 110.182L84.6625 112.252C85.0238 112.79 85.5405 113.206 86.1438 113.443C86.7471 113.681 87.4084 113.729 88.0397 113.582C88.6711 113.434 89.2426 113.098 89.6782 112.618C90.1138 112.138 90.3929 111.536 90.4784 110.893C90.5638 110.251 90.4516 109.597 90.1566 109.02C89.8616 108.443 89.3978 107.969 88.8269 107.661C88.256 107.354 87.605 107.228 86.9606 107.299C86.3162 107.371 85.7089 107.637 85.2195 108.062Z" fill="#FFB6B6"/>
<path d="M70.859 103.37C70.9399 103.19 70.9812 102.996 70.98 102.799C70.9788 102.602 70.9351 102.408 70.8521 102.23L67.2508 96.0024C66.9648 95.0376 66.3077 94.2255 65.4238 93.7443C64.5399 93.2632 63.5012 93.1522 62.5356 93.4357C61.57 93.7192 60.7562 94.3741 60.2727 95.2567C59.7892 96.1394 59.6754 97.1777 59.9564 98.1441L62.3302 104.967C62.358 105.162 62.4274 105.348 62.5337 105.514C62.64 105.679 62.7807 105.82 62.9462 105.926C63.1118 106.032 63.2983 106.102 63.493 106.129C63.6877 106.157 63.8861 106.142 64.0747 106.086C65.1705 104.172 67.46 103.29 69.557 103.975L70.0006 104.119C70.1892 104.064 70.3635 103.968 70.5117 103.838C70.6598 103.709 70.7783 103.549 70.859 103.37Z" fill="#FF6584"/>
</svg>
